<svg width="100%" height="100%" viewBox="0 0 1196 152" version="1.1" xmlns="http://www.w3.org/2000/svg" xmlns:xlink="http://www.w3.org/1999/xlink" xml:space="preserve" xmlns:serif="http://www.serif.com/" style="fill-rule:evenodd;clip-rule:evenodd;stroke-linejoin:round;stroke-miterlimit:1.41421;">
    <g id="Artboard1" transform="matrix(0.960618,0,0,0.194454,-12.6748,-1.51242)">
        <rect x="13.194" y="7.778" width="1244.44" height="778.889" style="fill:none;"/>
        <g transform="matrix(1.01782,0,0,0.84777,-9.17377,57.5914)">
            <g id="J" transform="matrix(1.02277,0,0,6.06604,-0.807109,-207.22)">
                <path d="M65.974,149.48C59.158,149.48 52.894,148.208 47.182,145.664C41.47,143.12 36.79,139.496 33.142,134.792L46.102,119.24C51.574,126.632 57.814,130.328 64.822,130.328C74.326,130.328 79.078,124.76 79.078,113.624L79.078,65.672L43.654,65.672L43.654,46.952L102.262,46.952L102.262,112.328C102.262,124.712 99.19,134 93.046,140.192C86.902,146.384 77.878,149.48 65.974,149.48Z" style="fill:url(#_Linear1);fill-rule:nonzero;"/>
            </g>
            <g id="A" transform="matrix(1.02277,0,0,6.06604,-0.807109,-207.22)">
                <path d="M154.966,69.128C166.966,69.128 176.182,71.984 182.614,77.696C189.046,83.408 192.262,92.024 192.262,103.544L192.262,147.752L171.238,147.752L171.238,138.104C167.014,145.304 159.142,148.904 147.622,148.904C141.67,148.904 136.51,147.896 132.142,145.88C127.774,143.864 124.438,141.08 122.134,137.528C119.83,133.976 118.678,129.944 118.678,125.432C118.678,118.232 121.39,112.568 126.814,108.44C132.238,104.312 140.614,102.248 151.942,102.248L169.798,102.248C169.798,97.352 168.31,93.584 165.334,90.944C162.358,88.304 157.894,86.984 151.942,86.984C147.814,86.984 143.758,87.632 139.774,88.928C135.79,90.224 132.406,91.976 129.622,94.184L121.558,78.488C125.782,75.512 130.846,73.208 136.75,71.576C142.654,69.944 148.726,69.128 154.966,69.128ZM153.238,133.784C157.078,133.784 160.486,132.896 163.462,131.12C166.438,129.344 168.55,126.728 169.798,123.272L169.798,115.352L154.39,115.352C145.174,115.352 140.566,118.376 140.566,124.424C140.566,127.304 141.694,129.584 143.95,131.264C146.206,132.944 149.302,133.784 153.238,133.784Z" style="fill:url(#_Linear2);fill-rule:nonzero;"/>
            </g>
            <g id="C" transform="matrix(1.02277,0,0,6.06604,-0.807109,-207.22)">
                <path d="M250.87,148.904C242.614,148.904 235.198,147.2 228.622,143.792C222.046,140.384 216.91,135.656 213.214,129.608C209.518,123.56 207.67,116.696 207.67,109.016C207.67,101.336 209.518,94.472 213.214,88.424C216.91,82.376 222.046,77.648 228.622,74.24C235.198,70.832 242.614,69.128 250.87,69.128C259.03,69.128 266.158,70.832 272.254,74.24C278.35,77.648 282.79,82.52 285.574,88.856L268.15,98.216C264.118,91.112 258.31,87.56 250.726,87.56C244.87,87.56 240.022,89.48 236.182,93.32C232.342,97.16 230.422,102.392 230.422,109.016C230.422,115.64 232.342,120.872 236.182,124.712C240.022,128.552 244.87,130.472 250.726,130.472C258.406,130.472 264.214,126.92 268.15,119.816L285.574,129.32C282.79,135.464 278.35,140.264 272.254,143.72C266.158,147.176 259.03,148.904 250.87,148.904Z" style="fill:url(#_Linear3);fill-rule:nonzero;"/>
            </g>
            <g id="O" transform="matrix(1.02277,0,0,6.06604,-0.807109,-207.22)">
                <path d="M334.39,148.904C326.23,148.904 318.91,147.2 312.43,143.792C305.95,140.384 300.886,135.656 297.238,129.608C293.59,123.56 291.766,116.696 291.766,109.016C291.766,101.336 293.59,94.472 297.238,88.424C300.886,82.376 305.95,77.648 312.43,74.24C318.91,70.832 326.23,69.128 334.39,69.128C342.55,69.128 349.846,70.832 356.278,74.24C362.71,77.648 367.75,82.376 371.398,88.424C375.046,94.472 376.87,101.336 376.87,109.016C376.87,116.696 375.046,123.56 371.398,129.608C367.75,135.656 362.71,140.384 356.278,143.792C349.846,147.2 342.55,148.904 334.39,148.904ZM334.39,130.472C340.15,130.472 344.878,128.528 348.574,124.64C352.27,120.752 354.118,115.544 354.118,109.016C354.118,102.488 352.27,97.28 348.574,93.392C344.878,89.504 340.15,87.56 334.39,87.56C328.63,87.56 323.878,89.504 320.134,93.392C316.39,97.28 314.518,102.488 314.518,109.016C314.518,115.544 316.39,120.752 320.134,124.64C323.878,128.528 328.63,130.472 334.39,130.472Z" style="fill:url(#_Linear4);fill-rule:nonzero;"/>
            </g>
            <g id="B" transform="matrix(1.02277,0,0,6.06604,-0.807109,-207.22)">
                <path d="M437.638,69.128C444.838,69.128 451.39,70.784 457.294,74.096C463.198,77.408 467.83,82.064 471.19,88.064C474.55,94.064 476.23,101.048 476.23,109.016C476.23,116.984 474.55,123.968 471.19,129.968C467.83,135.968 463.198,140.624 457.294,143.936C451.39,147.248 444.838,148.904 437.638,148.904C426.982,148.904 418.87,145.544 413.302,138.824L413.302,147.752L391.846,147.752L391.846,40.904L414.31,40.904L414.31,78.488C419.974,72.248 427.75,69.128 437.638,69.128ZM433.75,130.472C439.51,130.472 444.238,128.528 447.934,124.64C451.63,120.752 453.478,115.544 453.478,109.016C453.478,102.488 451.63,97.28 447.934,93.392C444.238,89.504 439.51,87.56 433.75,87.56C427.99,87.56 423.262,89.504 419.566,93.392C415.87,97.28 414.022,102.488 414.022,109.016C414.022,115.544 415.87,120.752 419.566,124.64C423.262,128.528 427.99,130.472 433.75,130.472Z" style="fill:url(#_Linear5);fill-rule:nonzero;"/>
            </g>
            <g id="C2" transform="matrix(1.02277,0,0,6.06604,-0.807109,-207.22)">
                <path d="M581.782,149.48C571.51,149.48 562.222,147.248 553.918,142.784C545.614,138.32 539.086,132.128 534.334,124.208C529.582,116.288 527.206,107.336 527.206,97.352C527.206,87.368 529.582,78.416 534.334,70.496C539.086,62.576 545.614,56.384 553.918,51.92C562.222,47.456 571.558,45.224 581.926,45.224C590.662,45.224 598.558,46.76 605.614,49.832C612.67,52.904 618.598,57.32 623.398,63.08L608.422,76.904C601.606,69.032 593.158,65.096 583.078,65.096C576.838,65.096 571.27,66.464 566.374,69.2C561.478,71.936 557.662,75.752 554.926,80.648C552.19,85.544 550.822,91.112 550.822,97.352C550.822,103.592 552.19,109.16 554.926,114.056C557.662,118.952 561.478,122.768 566.374,125.504C571.27,128.24 576.838,129.608 583.078,129.608C593.158,129.608 601.606,125.624 608.422,117.656L623.398,131.48C618.598,137.336 612.646,141.8 605.542,144.872C598.438,147.944 590.518,149.48 581.782,149.48Z" style="fill:url(#_Linear6);fill-rule:nonzero;"/>
            </g>
            <g id="A2" transform="matrix(1.02277,0,0,6.06604,-0.807109,-207.22)">
                <path d="M668.182,69.128C680.182,69.128 689.398,71.984 695.83,77.696C702.262,83.408 705.478,92.024 705.478,103.544L705.478,147.752L684.454,147.752L684.454,138.104C680.23,145.304 672.358,148.904 660.838,148.904C654.886,148.904 649.726,147.896 645.358,145.88C640.99,143.864 637.654,141.08 635.35,137.528C633.046,133.976 631.894,129.944 631.894,125.432C631.894,118.232 634.606,112.568 640.03,108.44C645.454,104.312 653.83,102.248 665.158,102.248L683.014,102.248C683.014,97.352 681.526,93.584 678.55,90.944C675.574,88.304 671.11,86.984 665.158,86.984C661.03,86.984 656.974,87.632 652.99,88.928C649.006,90.224 645.622,91.976 642.838,94.184L634.774,78.488C638.998,75.512 644.062,73.208 649.966,71.576C655.87,69.944 661.942,69.128 668.182,69.128ZM666.454,133.784C670.294,133.784 673.702,132.896 676.678,131.12C679.654,129.344 681.766,126.728 683.014,123.272L683.014,115.352L667.606,115.352C658.39,115.352 653.782,118.376 653.782,124.424C653.782,127.304 654.91,129.584 657.166,131.264C659.422,132.944 662.518,133.784 666.454,133.784Z" style="fill:url(#_Linear7);fill-rule:nonzero;"/>
            </g>
            <g id="D" transform="matrix(1.02277,0,0,6.06604,-0.807109,-207.22)">
                <path d="M805.558,40.904L805.558,147.752L784.102,147.752L784.102,138.824C778.534,145.544 770.47,148.904 759.91,148.904C752.614,148.904 746.014,147.272 740.11,144.008C734.206,140.744 729.574,136.088 726.214,130.04C722.854,123.992 721.174,116.984 721.174,109.016C721.174,101.048 722.854,94.04 726.214,87.992C729.574,81.944 734.206,77.288 740.11,74.024C746.014,70.76 752.614,69.128 759.91,69.128C769.798,69.128 777.526,72.248 783.094,78.488L783.094,40.904L805.558,40.904ZM763.798,130.472C769.462,130.472 774.166,128.528 777.91,124.64C781.654,120.752 783.526,115.544 783.526,109.016C783.526,102.488 781.654,97.28 777.91,93.392C774.166,89.504 769.462,87.56 763.798,87.56C758.038,87.56 753.286,89.504 749.542,93.392C745.798,97.28 743.926,102.488 743.926,109.016C743.926,115.544 745.798,120.752 749.542,124.64C753.286,128.528 758.038,130.472 763.798,130.472Z" style="fill:url(#_Linear8);fill-rule:nonzero;"/>
            </g>
            <g id="I" transform="matrix(1.02277,0,0,6.06604,-0.807109,-207.22)">
                <path d="M826.294,70.28L848.758,70.28L848.758,147.752L826.294,147.752L826.294,70.28ZM837.526,59.48C833.398,59.48 830.038,58.28 827.446,55.88C824.854,53.48 823.558,50.504 823.558,46.952C823.558,43.4 824.854,40.424 827.446,38.024C830.038,35.624 833.398,34.424 837.526,34.424C841.654,34.424 845.014,35.576 847.606,37.88C850.198,40.184 851.494,43.064 851.494,46.52C851.494,50.264 850.198,53.36 847.606,55.808C845.014,58.256 841.654,59.48 837.526,59.48Z" style="fill:url(#_Linear9);fill-rule:nonzero;"/>
            </g>
            <g id="E1" transform="matrix(1.02277,0,0,6.06604,-0.807109,-207.22)">
                <path d="M945.526,109.304C945.526,109.592 945.382,111.608 945.094,115.352L886.486,115.352C887.542,120.152 890.038,123.944 893.974,126.728C897.91,129.512 902.806,130.904 908.662,130.904C912.694,130.904 916.27,130.304 919.39,129.104C922.51,127.904 925.414,126.008 928.102,123.416L940.054,136.376C932.758,144.728 922.102,148.904 908.086,148.904C899.35,148.904 891.622,147.2 884.902,143.792C878.182,140.384 872.998,135.656 869.35,129.608C865.702,123.56 863.878,116.696 863.878,109.016C863.878,101.432 865.678,94.592 869.278,88.496C872.878,82.4 877.822,77.648 884.11,74.24C890.398,70.832 897.43,69.128 905.206,69.128C912.79,69.128 919.654,70.76 925.798,74.024C931.942,77.288 936.766,81.968 940.27,88.064C943.774,94.16 945.526,101.24 945.526,109.304ZM905.35,86.12C900.262,86.12 895.99,87.56 892.534,90.44C889.078,93.32 886.966,97.256 886.198,102.248L924.358,102.248C923.59,97.352 921.478,93.44 918.022,90.512C914.566,87.584 910.342,86.12 905.35,86.12Z" style="fill:url(#_Linear10);fill-rule:nonzero;"/>
            </g>
            <g id="N" transform="matrix(1.02277,0,0,6.06604,-0.807109,-207.22)">
                <path d="M1007.59,69.128C1017.19,69.128 1024.94,72.008 1030.85,77.768C1036.75,83.528 1039.7,92.072 1039.7,103.4L1039.7,147.752L1017.24,147.752L1017.24,106.856C1017.24,100.712 1015.89,96.128 1013.21,93.104C1010.52,90.08 1006.63,88.568 1001.54,88.568C995.878,88.568 991.366,90.32 988.006,93.824C984.646,97.328 982.966,102.536 982.966,109.448L982.966,147.752L960.502,147.752L960.502,70.28L981.958,70.28L981.958,79.352C984.934,76.088 988.63,73.568 993.046,71.792C997.462,70.016 1002.31,69.128 1007.59,69.128Z" style="fill:url(#_Linear11);fill-rule:nonzero;"/>
            </g>
            <g id="T" transform="matrix(1.02277,0,0,6.06604,-0.807109,-207.22)">
                <path d="M1109.97,144.008C1107.77,145.64 1105.05,146.864 1101.84,147.68C1098.62,148.496 1095.24,148.904 1091.69,148.904C1082.47,148.904 1075.34,146.552 1070.3,141.848C1065.26,137.144 1062.74,130.232 1062.74,121.112L1062.74,89.288L1050.79,89.288L1050.79,72.008L1062.74,72.008L1062.74,53.144L1085.21,53.144L1085.21,72.008L1104.5,72.008L1104.5,89.288L1085.21,89.288L1085.21,120.824C1085.21,124.088 1086.05,126.608 1087.73,128.384C1089.41,130.16 1091.78,131.048 1094.85,131.048C1098.41,131.048 1101.43,130.088 1103.93,128.168L1109.97,144.008Z" style="fill:url(#_Linear12);fill-rule:nonzero;"/>
            </g>
            <g id="E2" transform="matrix(1.02277,0,0,6.06604,-0.807109,-207.22)">
                <path d="M1196.09,109.304C1196.09,109.592 1195.94,111.608 1195.65,115.352L1137.05,115.352C1138.1,120.152 1140.6,123.944 1144.53,126.728C1148.47,129.512 1153.37,130.904 1159.22,130.904C1163.25,130.904 1166.83,130.304 1169.95,129.104C1173.07,127.904 1175.97,126.008 1178.66,123.416L1190.61,136.376C1183.32,144.728 1172.66,148.904 1158.65,148.904C1149.91,148.904 1142.18,147.2 1135.46,143.792C1128.74,140.384 1123.56,135.656 1119.91,129.608C1116.26,123.56 1114.44,116.696 1114.44,109.016C1114.44,101.432 1116.24,94.592 1119.84,88.496C1123.44,82.4 1128.38,77.648 1134.67,74.24C1140.96,70.832 1147.99,69.128 1155.77,69.128C1163.35,69.128 1170.21,70.76 1176.36,74.024C1182.5,77.288 1187.33,81.968 1190.83,88.064C1194.33,94.16 1196.09,101.24 1196.09,109.304ZM1155.91,86.12C1150.82,86.12 1146.55,87.56 1143.09,90.44C1139.64,93.32 1137.53,97.256 1136.76,102.248L1174.92,102.248C1174.15,97.352 1172.04,93.44 1168.58,90.512C1165.13,87.584 1160.9,86.12 1155.91,86.12Z" style="fill:url(#_Linear13);fill-rule:nonzero;"/>
            </g>
        </g>
    </g>
    <defs>
        <linearGradient id="_Linear1" x1="0" y1="0" x2="1" y2="0" gradientUnits="userSpaceOnUse" gradientTransform="matrix(1165.25,0,0,1165.25,35.4456,96.1278)"><stop offset="0" style="stop-color:rgb(0,184,255);stop-opacity:1"/><stop offset="1" style="stop-color:rgb(255,0,236);stop-opacity:1"/></linearGradient>
        <linearGradient id="_Linear2" x1="0" y1="0" x2="1" y2="0" gradientUnits="userSpaceOnUse" gradientTransform="matrix(1165.25,0,0,1165.25,35.4456,96.1278)"><stop offset="0" style="stop-color:rgb(0,184,255);stop-opacity:1"/><stop offset="1" style="stop-color:rgb(255,0,236);stop-opacity:1"/></linearGradient>
        <linearGradient id="_Linear3" x1="0" y1="0" x2="1" y2="0" gradientUnits="userSpaceOnUse" gradientTransform="matrix(1165.25,0,0,1165.25,35.4456,96.1278)"><stop offset="0" style="stop-color:rgb(0,184,255);stop-opacity:1"/><stop offset="1" style="stop-color:rgb(255,0,236);stop-opacity:1"/></linearGradient>
        <linearGradient id="_Linear4" x1="0" y1="0" x2="1" y2="0" gradientUnits="userSpaceOnUse" gradientTransform="matrix(1165.25,0,0,1165.25,35.4456,96.1278)"><stop offset="0" style="stop-color:rgb(0,184,255);stop-opacity:1"/><stop offset="1" style="stop-color:rgb(255,0,236);stop-opacity:1"/></linearGradient>
        <linearGradient id="_Linear5" x1="0" y1="0" x2="1" y2="0" gradientUnits="userSpaceOnUse" gradientTransform="matrix(1165.25,0,0,1165.25,35.4456,96.1278)"><stop offset="0" style="stop-color:rgb(0,184,255);stop-opacity:1"/><stop offset="1" style="stop-color:rgb(255,0,236);stop-opacity:1"/></linearGradient>
        <linearGradient id="_Linear6" x1="0" y1="0" x2="1" y2="0" gradientUnits="userSpaceOnUse" gradientTransform="matrix(1165.25,0,0,1165.25,35.4456,96.1278)"><stop offset="0" style="stop-color:rgb(0,184,255);stop-opacity:1"/><stop offset="1" style="stop-color:rgb(255,0,236);stop-opacity:1"/></linearGradient>
        <linearGradient id="_Linear7" x1="0" y1="0" x2="1" y2="0" gradientUnits="userSpaceOnUse" gradientTransform="matrix(1165.25,0,0,1165.25,35.4456,96.1278)"><stop offset="0" style="stop-color:rgb(0,184,255);stop-opacity:1"/><stop offset="1" style="stop-color:rgb(255,0,236);stop-opacity:1"/></linearGradient>
        <linearGradient id="_Linear8" x1="0" y1="0" x2="1" y2="0" gradientUnits="userSpaceOnUse" gradientTransform="matrix(1165.25,0,0,1165.25,35.4456,96.1278)"><stop offset="0" style="stop-color:rgb(0,184,255);stop-opacity:1"/><stop offset="1" style="stop-color:rgb(255,0,236);stop-opacity:1"/></linearGradient>
        <linearGradient id="_Linear9" x1="0" y1="0" x2="1" y2="0" gradientUnits="userSpaceOnUse" gradientTransform="matrix(1165.25,0,0,1165.25,35.4456,96.1278)"><stop offset="0" style="stop-color:rgb(0,184,255);stop-opacity:1"/><stop offset="1" style="stop-color:rgb(255,0,236);stop-opacity:1"/></linearGradient>
        <linearGradient id="_Linear10" x1="0" y1="0" x2="1" y2="0" gradientUnits="userSpaceOnUse" gradientTransform="matrix(1165.25,0,0,1165.25,35.4456,96.1278)"><stop offset="0" style="stop-color:rgb(0,184,255);stop-opacity:1"/><stop offset="1" style="stop-color:rgb(255,0,236);stop-opacity:1"/></linearGradient>
        <linearGradient id="_Linear11" x1="0" y1="0" x2="1" y2="0" gradientUnits="userSpaceOnUse" gradientTransform="matrix(1165.25,0,0,1165.25,35.4456,96.1278)"><stop offset="0" style="stop-color:rgb(0,184,255);stop-opacity:1"/><stop offset="1" style="stop-color:rgb(255,0,236);stop-opacity:1"/></linearGradient>
        <linearGradient id="_Linear12" x1="0" y1="0" x2="1" y2="0" gradientUnits="userSpaceOnUse" gradientTransform="matrix(1165.25,0,0,1165.25,35.4456,96.1278)"><stop offset="0" style="stop-color:rgb(0,184,255);stop-opacity:1"/><stop offset="1" style="stop-color:rgb(255,0,236);stop-opacity:1"/></linearGradient>
        <linearGradient id="_Linear13" x1="0" y1="0" x2="1" y2="0" gradientUnits="userSpaceOnUse" gradientTransform="matrix(1165.25,0,0,1165.25,35.4456,96.1278)"><stop offset="0" style="stop-color:rgb(0,184,255);stop-opacity:1"/><stop offset="1" style="stop-color:rgb(255,0,236);stop-opacity:1"/></linearGradient>
    </defs>
</svg>
