<?xml version="1.0" encoding="UTF-8" standalone="no"?>
<!DOCTYPE svg PUBLIC "-//W3C//DTD SVG 1.1//EN" "http://www.w3.org/Graphics/SVG/1.1/DTD/svg11.dtd">
<svg width="100%" height="100%" viewBox="0 0 1201 781" version="1.1" xmlns="http://www.w3.org/2000/svg" xmlns:xlink="http://www.w3.org/1999/xlink" xml:space="preserve" xmlns:serif="http://www.serif.com/" style="fill-rule:evenodd;clip-rule:evenodd;stroke-linecap:round;stroke-linejoin:round;stroke-miterlimit:1.5;">
    <g id="Artboard1" transform="matrix(1.02763,0,0,1.03697,-95.7691,-34.5658)">
        <rect x="93.194" y="33.333" width="1167.78" height="752.222" style="fill:none;"/>
        <g transform="matrix(1,0,0,1,28.1808,-16.1116)">
            <g>
                <g id="C" transform="matrix(0.973116,0,0,0.964346,-15.9193,72.0545)">
                    <path d="M796.129,530.811C775.585,530.81 757.009,526.347 740.401,517.419C723.793,508.491 710.737,496.107 701.233,480.267C691.729,464.427 686.977,446.522 686.977,426.555C686.977,406.586 691.729,388.683 701.233,372.843C710.737,357.003 723.793,344.619 740.401,335.691C757.009,326.763 775.681,322.299 796.417,322.299C813.889,322.299 829.681,325.37 843.793,331.515C857.905,337.658 869.761,346.491 879.361,358.011L849.409,385.659C835.777,369.914 818.881,362.043 798.721,362.043C786.241,362.043 775.105,364.779 765.313,370.251C755.521,375.723 747.889,383.355 742.417,393.147C736.945,402.939 734.209,414.074 734.209,426.555C734.209,439.034 736.945,450.171 742.417,459.963C747.889,469.755 755.521,477.387 765.313,482.859C775.105,488.331 786.241,491.067 798.721,491.067C818.881,491.067 835.777,483.098 849.409,467.163L879.361,494.811C869.761,506.522 857.857,515.45 843.649,521.595C829.441,527.738 813.601,530.81 796.129,530.811Z" style="fill:rgb(255,0,246);fill-rule:nonzero;"/>
                </g>
                <g id="Divide" transform="matrix(1.01475,0,0,1.13775,63.0659,-38.204)">
                    <path d="M383.923,542.948L777.103,195.435" style="fill:url(#_Linear1);stroke:url(#_Linear2);stroke-width:8.08px;"/>
                </g>
                <g id="J" transform="matrix(1.16149,0,0,0.940568,174.319,174.752)">
                    <path d="M321.345,225.623C307.713,225.623 295.185,223.079 283.761,217.991C272.337,212.903 262.977,205.655 255.681,196.247L281.601,165.143C292.545,179.927 305.025,187.319 319.041,187.319C338.049,187.319 347.553,176.183 347.553,153.911L347.553,58.007L276.705,58.007L276.705,20.567L393.921,20.567L393.921,151.319C393.921,176.087 387.777,194.663 375.489,207.047C363.201,219.431 345.153,225.623 321.345,225.623Z" style="fill:rgb(0,222,255);fill-rule:nonzero;"/>
                </g>
                <g id="Border" transform="matrix(0.971884,0,0,1.09668,74.9986,-15.9245)">
                    <path d="M353.85,574.135L353.846,158.41L832.801,156.586L829.452,574.135L353.85,574.135Z" style="fill:none;stroke:black;stroke-width:1.87px;"/>
                </g>
            </g>
        </g>
    </g>
    <defs>
        <linearGradient id="_Linear1" x1="0" y1="0" x2="1" y2="0" gradientUnits="userSpaceOnUse" gradientTransform="matrix(253.952,0,0,326.35,454.094,359.724)"><stop offset="0" style="stop-color:rgb(0,229,255);stop-opacity:1"/><stop offset="1" style="stop-color:rgb(255,0,250);stop-opacity:1"/></linearGradient>
        <linearGradient id="_Linear2" x1="0" y1="0" x2="1" y2="0" gradientUnits="userSpaceOnUse" gradientTransform="matrix(253.952,0,0,326.35,454.094,359.724)"><stop offset="0" style="stop-color:rgb(0,188,255);stop-opacity:1"/><stop offset="1" style="stop-color:rgb(255,0,235);stop-opacity:1"/></linearGradient>
    </defs>
</svg>
